<?xml version="1.0" encoding="UTF-8"?>
<svg width="46px" height="24px" viewBox="0 0 46 24" version="1.1" xmlns="http://www.w3.org/2000/svg" xmlns:xlink="http://www.w3.org/1999/xlink">
    <!-- Generator: Sketch 52.6 (67491) - http://www.bohemiancoding.com/sketch -->
    <title>Shape</title>
    <desc>Created with Sketch.</desc>
    <g id="Symbols" stroke="none" stroke-width="1" fill="none" fill-rule="evenodd" fill-opacity="0.9471524">
        <g id="Logo-/-Light" transform="translate(0.000000, -6.000000)" fill="#1F1F1F" fill-rule="nonzero">
            <g id="logo" transform="translate(0.000000, 6.000000)">
                <path d="M11.5,20.5 C16.1944204,20.5 20,16.6944204 20,12 C20,7.30557963 16.1944204,3.5 11.5,3.5 C6.80557963,3.5 3,7.30557963 3,12 C3,16.6944204 6.80557963,20.5 11.5,20.5 Z M11.5,23.5 C5.14872538,23.5 0,18.3512746 0,12 C0,5.64872538 5.14872538,0.5 11.5,0.5 C17.8512746,0.5 23,5.64872538 23,12 C23,18.3512746 17.8512746,23.5 11.5,23.5 Z M39.723565,4 L29.63,4 L29.63,16.506224 L39.723565,4 Z M26.63,23.0181189 L26.63,2 C26.63,1.44771525 27.0777153,1 27.63,1 L44.5354985,1 C44.9220978,1 45.2354985,1.31340068 45.2354985,1.7 C45.2354985,1.85998368 45.1806972,2.01514025 45.0802194,2.13963519 L27.8747209,23.4577541 C27.6319171,23.7585952 27.1912059,23.8056437 26.8903648,23.5628399 C26.7257094,23.4299492 26.63,23.2297114 26.63,23.0181189 Z" id="Shape"></path>
            </g>
        </g>
    </g>
</svg>